<svg width="48" height="45" viewBox="0 0 48 45" fill="none" xmlns="http://www.w3.org/2000/svg">
<path d="M46.5938 23.8125C47.3704 23.8125 48 23.1829 48 22.4062V11.9062C48 11.1296 47.3704 10.5 46.5938 10.5C45.6135 10.5 26.4628 10.5 25.4062 10.5V1.40625C25.4062 0.629625 24.7766 0 24 0H9C8.22337 0 7.59375 0.629625 7.59375 1.40625V10.5H1.40625C0.629625 10.5 0 11.1296 0 11.9062V22.4062C0 23.1829 0.629625 23.8125 1.40625 23.8125H7.59375V31.5H1.40625C0.629625 31.5 0 32.1296 0 32.9062V43.4062C0 44.1829 0.629625 44.8125 1.40625 44.8125H46.5938C47.3704 44.8125 48 44.1829 48 43.4062V32.9062C48 32.1296 47.3704 31.5 46.5938 31.5H40.4062V23.8125H46.5938ZM45.1875 21C43.683 21 34.3936 21 32.9062 21V13.3125H45.1875V21ZM30.0938 21C28.6208 21 19.3889 21 17.9062 21V13.3125H30.0938V21ZM10.4062 2.8125H22.5938V10.5C21.1208 10.5 11.8889 10.5 10.4062 10.5V2.8125ZM2.8125 21V13.3125H15.0938V21C13.6058 21 4.31672 21 2.8125 21ZM10.4062 23.8125H22.5938V31.5C21.1208 31.5 11.8889 31.5 10.4062 31.5V23.8125ZM2.8125 34.3125H15.0938V42H2.8125V34.3125ZM17.9062 34.3125H30.0938V42H17.9062V34.3125ZM45.1875 34.3125V42H32.9062V34.3125H45.1875ZM37.5938 31.5C36.1208 31.5 26.8889 31.5 25.4062 31.5V23.8125H37.5938V31.5Z" fill="white"/>
</svg>
